<svg width="600" height="300" viewBox="0 0 600 300" fill="none" xmlns="http://www.w3.org/2000/svg">
    <rect width="600" height="300" fill="#222831" />
    <rect x="2" y="2" width="596" height="296" stroke="#393E46" stroke-width="2" />
    
    <!-- Window Controls -->
    <circle cx="30" cy="30" r="6" fill="#393E46" />
    <circle cx="50" cy="30" r="6" fill="#393E46" />
    <circle cx="70" cy="30" r="6" fill="#393E46" />
    
    <!-- Title -->
    <text x="300.0" y="35" text-anchor="middle" font-family="monospace" fill="#EEEEEE" font-size="14">DSA-Mastery-Roadmap</text>
    <line x1="0" y1="60" x2="600" y2="60" stroke="#393E46" />
    
    <!-- Code Content -->
    <rect x="40" y="60" width="126" height="10" rx="2" fill="#393E46" opacity="0.5" /><rect x="40" y="80" width="352" height="10" rx="2" fill="#393E46" opacity="0.5" /><rect x="40" y="100" width="203" height="10" rx="2" fill="#393E46" opacity="0.5" /><rect x="40" y="120" width="278" height="10" rx="2" fill="#393E46" opacity="0.5" /><rect x="40" y="140" width="160" height="10" rx="2" fill="#393E46" opacity="0.5" /><rect x="40" y="160" width="233" height="10" rx="2" fill="#393E46" opacity="0.5" /><rect x="40" y="180" width="237" height="10" rx="2" fill="#393E46" opacity="0.5" /><rect x="40" y="200" width="186" height="10" rx="2" fill="#393E46" opacity="0.5" /><rect x="40" y="220" width="367" height="10" rx="2" fill="#393E46" opacity="0.5" /><rect x="40" y="240" width="197" height="10" rx="2" fill="#393E46" opacity="0.5" />
    
    <!-- Accent -->
    <rect x="0" y="295" width="600" height="5" fill="#00ADB5" />
</svg>